<svg width="271" height="15" viewBox="0 0 271 15" fill="none" xmlns="http://www.w3.org/2000/svg">
<mask id="mask0_14_51" style="mask-type:alpha" maskUnits="userSpaceOnUse" x="0" y="0" width="271" height="15">
<mask id="path-1-inside-1_14_51" fill="white">
<path d="M0.895386 6C0.895386 2.68629 3.58168 0 6.89539 0H264.981C268.295 0 270.981 2.68629 270.981 6V9C270.981 12.3137 268.295 15 264.981 15H6.89538C3.58167 15 0.895386 12.3137 0.895386 9V6Z"/>
</mask>
<path d="M0.895386 6C0.895386 2.68629 3.58168 0 6.89539 0H264.981C268.295 0 270.981 2.68629 270.981 6V9C270.981 12.3137 268.295 15 264.981 15H6.89538C3.58167 15 0.895386 12.3137 0.895386 9V6Z" fill="#CCDAC6" fill-opacity="0.14"/>
<path d="M0.895386 6C0.895386 2.68629 3.58168 0 6.89539 0H264.981C268.295 0 270.981 2.68629 270.981 6V9C270.981 12.3137 268.295 15 264.981 15H6.89538C3.58167 15 0.895386 12.3137 0.895386 9V6Z" fill="url(#paint0_linear_14_51)" fill-opacity="0.2"/>
<path d="M0.895386 0H270.981H0.895386ZM270.981 9C270.981 12.866 267.847 16 263.981 16H6.89539C3.02939 16 -0.104614 12.866 -0.104614 9H1.89539C1.89539 11.7614 4.13396 14 6.89539 14H264.981C268.295 14 270.981 11.7614 270.981 9ZM6.89539 16C3.02939 16 -0.104614 12.866 -0.104614 9V7C-0.104614 3.13401 3.02939 0 6.89539 0C4.13396 0 1.89539 2.68629 1.89539 6V9C1.89539 11.7614 4.13396 14 6.89539 14V16ZM270.981 0V15V0Z" fill="white" mask="url(#path-1-inside-1_14_51)"/>
</mask>
<g mask="url(#mask0_14_51)">
<rect x="1.89197" y="1" width="32" height="270.086" transform="rotate(-90 1.89197 1)" fill="#403A81"/>
<rect x="1.89197" y="1" width="32" height="270.086" transform="rotate(-90 1.89197 1)" stroke="white"/>
<rect x="0.895386" width="270.086" height="15" rx="6" fill="#CCDAC6" fill-opacity="0.14"/>
<rect x="0.895386" width="270.086" height="15" rx="6" fill="url(#paint1_linear_14_51)" fill-opacity="0.2"/>
<rect x="0.895386" width="270.086" height="15" rx="6" stroke="white"/>
</g>
<defs>
<linearGradient id="paint0_linear_14_51" x1="120.989" y1="-11" x2="241.626" y2="18.3124" gradientUnits="userSpaceOnUse">
<stop stop-color="#C90B0B" stop-opacity="0"/>
<stop offset="1" stop-color="#C90B0B"/>
</linearGradient>
<linearGradient id="paint1_linear_14_51" x1="120.989" y1="-11" x2="241.626" y2="18.3124" gradientUnits="userSpaceOnUse">
<stop stop-color="#C90B0B" stop-opacity="0"/>
<stop offset="1" stop-color="#C90B0B"/>
</linearGradient>
</defs>
</svg>
