<svg width="271" height="37" viewBox="0 0 271 37" fill="none" xmlns="http://www.w3.org/2000/svg">
<g filter="url(#filter0_i_141_84)">
<mask id="mask0_141_84" style="mask-type:luminance" maskUnits="userSpaceOnUse" x="0" y="0" width="271" height="37">
<rect width="270.086" height="37" rx="10" fill="white"/>
</mask>
<g mask="url(#mask0_141_84)">
<rect x="5.97986" width="270.086" height="37" rx="10" fill="#CCDAC6" fill-opacity="0.14"/>
<rect x="5.97986" width="270.086" height="37" rx="10" fill="url(#paint0_linear_141_84)" fill-opacity="0.66"/>
<rect width="55.8112" height="96.8162" rx="10" transform="matrix(0.4937 0.869632 -0.211116 0.977461 11.4698 -56.9231)" fill="#403A81"/>
<rect x="-3" y="68" width="32" height="319" rx="5" transform="rotate(-90 -3 68)" fill="#48326B"/>
<path d="M-1.08655 24.3359H2.78796C3.59851 24.3359 4.29431 24.458 4.87537 24.7021C5.45642 24.9463 5.9032 25.3076 6.2157 25.7861C6.5282 26.2646 6.68445 26.853 6.68445 27.5513C6.68445 28.103 6.58679 28.5815 6.39148 28.9868C6.19617 29.3921 5.92029 29.7314 5.56384 30.0049C5.21228 30.2783 4.79724 30.4932 4.31873 30.6494L3.68884 30.9717H0.268433L0.253784 29.3823H2.80994C3.22498 29.3823 3.56921 29.3091 3.84265 29.1626C4.11609 29.0161 4.32117 28.8135 4.45789 28.5547C4.59949 28.2959 4.67029 28.0005 4.67029 27.6685C4.67029 27.312 4.60193 27.0044 4.46521 26.7456C4.32849 26.4819 4.12097 26.2793 3.84265 26.1377C3.56433 25.9961 3.21277 25.9253 2.78796 25.9253H0.927612V35H-1.08655V24.3359ZM4.93396 35L2.4657 30.2246L4.59705 30.2173L7.0946 34.8975V35H4.93396ZM11.8627 35.1465C11.2621 35.1465 10.7225 35.0488 10.244 34.8535C9.7655 34.6582 9.35779 34.3872 9.02087 34.0405C8.68884 33.689 8.4325 33.2812 8.25183 32.8174C8.07605 32.3486 7.98816 31.8457 7.98816 31.3086V31.0156C7.98816 30.4053 8.07605 29.8511 8.25183 29.353C8.42761 28.8501 8.67664 28.418 8.9989 28.0566C9.32117 27.6953 9.70691 27.417 10.1561 27.2217C10.6053 27.0264 11.101 26.9287 11.6429 26.9287C12.2045 26.9287 12.7001 27.0239 13.1298 27.2144C13.5594 27.3999 13.9183 27.6636 14.2064 28.0054C14.4945 28.3472 14.7118 28.7573 14.8583 29.2358C15.0048 29.7095 15.078 30.2344 15.078 30.8105V31.6235H8.86707V30.2905H13.1737V30.144C13.1639 29.8364 13.1053 29.5557 12.9979 29.3018C12.8905 29.043 12.7245 28.8379 12.4999 28.6865C12.2753 28.5303 11.9847 28.4521 11.6283 28.4521C11.3402 28.4521 11.0887 28.5156 10.8739 28.6426C10.6639 28.7646 10.4882 28.9404 10.3466 29.1699C10.2098 29.3945 10.1073 29.6631 10.0389 29.9756C9.97058 30.2881 9.9364 30.6348 9.9364 31.0156V31.3086C9.9364 31.6406 9.98035 31.9482 10.0682 32.2314C10.161 32.5146 10.2953 32.7612 10.4711 32.9712C10.6517 33.1763 10.8666 33.3374 11.1156 33.4546C11.3695 33.5669 11.6576 33.623 11.9799 33.623C12.3851 33.623 12.7513 33.5449 13.0785 33.3887C13.4105 33.2275 13.6986 32.9907 13.9427 32.6782L14.9169 33.689C14.7509 33.9331 14.5262 34.1675 14.243 34.3921C13.9647 34.6167 13.6278 34.7998 13.2323 34.9414C12.8368 35.0781 12.3802 35.1465 11.8627 35.1465ZM21.4135 27.0752H23.1713V34.7583C23.1713 35.4761 23.015 36.084 22.7025 36.582C22.3949 37.085 21.9628 37.4658 21.4061 37.7246C20.8495 37.9883 20.2025 38.1201 19.4652 38.1201C19.1478 38.1201 18.8036 38.0762 18.4325 37.9883C18.0663 37.9004 17.7123 37.7612 17.3705 37.5708C17.0336 37.3853 16.7528 37.1436 16.5282 36.8457L17.3998 35.7031C17.6635 36.0107 17.9613 36.2427 18.2933 36.3989C18.6254 36.5601 18.9843 36.6406 19.37 36.6406C19.7606 36.6406 20.0927 36.5674 20.3661 36.4209C20.6444 36.2793 20.8568 36.0693 21.0033 35.791C21.1547 35.5176 21.2303 35.1807 21.2303 34.7803V28.8843L21.4135 27.0752ZM16.0594 31.1328V30.979C16.0594 30.3735 16.1327 29.8242 16.2792 29.3311C16.4257 28.833 16.6356 28.4058 16.9091 28.0493C17.1874 27.6929 17.5219 27.417 17.9125 27.2217C18.308 27.0264 18.7523 26.9287 19.2455 26.9287C19.7679 26.9287 20.2074 27.0239 20.5638 27.2144C20.9252 27.4048 21.223 27.6758 21.4574 28.0273C21.6967 28.3789 21.8822 28.7964 22.014 29.2798C22.1508 29.7583 22.2557 30.2856 22.329 30.8618V31.2793C22.2606 31.8408 22.1508 32.356 21.9994 32.8247C21.8529 33.2935 21.6576 33.7036 21.4135 34.0552C21.1693 34.4019 20.8666 34.6704 20.5052 34.8608C20.1439 35.0513 19.7191 35.1465 19.2308 35.1465C18.7426 35.1465 18.3031 35.0464 17.9125 34.8462C17.5219 34.646 17.1874 34.3652 16.9091 34.0039C16.6356 33.6426 16.4257 33.2178 16.2792 32.7295C16.1327 32.2412 16.0594 31.709 16.0594 31.1328ZM17.993 30.979V31.1328C17.993 31.4746 18.0272 31.7944 18.0956 32.0923C18.1639 32.3901 18.2689 32.6538 18.4105 32.8833C18.5521 33.1079 18.7303 33.2837 18.9452 33.4106C19.16 33.5376 19.4164 33.6011 19.7142 33.6011C20.1146 33.6011 20.4418 33.5181 20.6957 33.3521C20.9545 33.1812 21.1498 32.9492 21.2816 32.6562C21.4183 32.3584 21.5062 32.0239 21.5453 31.6528V30.5029C21.5209 30.21 21.4672 29.939 21.3842 29.6899C21.306 29.4409 21.1962 29.2261 21.0546 29.0454C20.913 28.8647 20.7323 28.7231 20.5126 28.6206C20.2928 28.5181 20.0316 28.4668 19.7289 28.4668C19.4359 28.4668 19.1796 28.5327 18.9598 28.6646C18.7401 28.7915 18.5594 28.9697 18.4178 29.1992C18.2762 29.4287 18.1688 29.6948 18.0956 29.9976C18.0272 30.3003 17.993 30.6274 17.993 30.979ZM29.6312 33.1177V27.0752H31.5795V35H29.7484L29.6312 33.1177ZM29.8802 31.4771L30.4808 31.4624C30.4808 31.9946 30.4222 32.4854 30.3051 32.9346C30.1879 33.3838 30.0048 33.7744 29.7557 34.1064C29.5116 34.4336 29.2015 34.6899 28.8256 34.8755C28.4496 35.0562 28.0052 35.1465 27.4926 35.1465C27.1019 35.1465 26.7455 35.0928 26.4232 34.9854C26.101 34.873 25.8226 34.6997 25.5883 34.4653C25.3588 34.2261 25.1805 33.9209 25.0536 33.5498C24.9266 33.1738 24.8632 32.7222 24.8632 32.1948V27.0752H26.7968V32.2095C26.7968 32.4731 26.826 32.6929 26.8846 32.8687C26.9481 33.0444 27.0336 33.1885 27.141 33.3008C27.2533 33.4082 27.3827 33.4863 27.5292 33.5352C27.6805 33.5791 27.8417 33.6011 28.0126 33.6011C28.4813 33.6011 28.85 33.5083 29.1185 33.3228C29.392 33.1323 29.5873 32.8784 29.7045 32.561C29.8217 32.2388 29.8802 31.8774 29.8802 31.4771ZM35.3441 23.75V35H33.4032V23.75H35.3441ZM41.5551 33.3154V29.6606C41.5551 29.3921 41.5087 29.1602 41.4159 28.9648C41.3231 28.7695 41.1815 28.6182 40.9911 28.5107C40.8007 28.4033 40.559 28.3496 40.266 28.3496C40.0072 28.3496 39.7802 28.3936 39.5848 28.4814C39.3944 28.5693 39.2479 28.6938 39.1454 28.855C39.0428 29.0112 38.9916 29.1919 38.9916 29.397H37.0507C37.0507 29.0698 37.1288 28.7598 37.285 28.4668C37.4413 28.1689 37.6635 27.9053 37.9515 27.6758C38.2445 27.4414 38.5936 27.2583 38.9989 27.1265C39.4091 26.9946 39.868 26.9287 40.3759 26.9287C40.9764 26.9287 41.5111 27.0312 41.9799 27.2363C42.4535 27.4365 42.8246 27.7393 43.0931 28.1445C43.3666 28.5498 43.5033 29.0601 43.5033 29.6753V33.1323C43.5033 33.5278 43.5277 33.8672 43.5765 34.1504C43.6302 34.4287 43.7084 34.6704 43.8109 34.8755V35H41.8407C41.7479 34.7998 41.6771 34.5459 41.6283 34.2383C41.5795 33.9258 41.5551 33.6182 41.5551 33.3154ZM41.826 30.1733L41.8407 31.3232H40.6176C40.3148 31.3232 40.0487 31.355 39.8192 31.4185C39.5897 31.4771 39.4017 31.5649 39.2552 31.6821C39.1088 31.7944 38.9989 31.9312 38.9257 32.0923C38.8524 32.2485 38.8158 32.4268 38.8158 32.627C38.8158 32.8223 38.8597 32.998 38.9476 33.1543C39.0404 33.3105 39.1722 33.4351 39.3431 33.5278C39.5189 33.6157 39.724 33.6597 39.9584 33.6597C40.3002 33.6597 40.598 33.5913 40.8519 33.4546C41.1058 33.313 41.3036 33.1421 41.4452 32.9419C41.5868 32.7417 41.6625 32.5513 41.6722 32.3706L42.2289 33.2056C42.1605 33.4058 42.058 33.6182 41.9213 33.8428C41.7845 34.0674 41.6088 34.2773 41.3939 34.4727C41.1791 34.668 40.9203 34.8291 40.6176 34.9561C40.3148 35.083 39.9633 35.1465 39.5629 35.1465C39.0502 35.1465 38.5912 35.0439 38.1859 34.8389C37.7806 34.6338 37.4608 34.353 37.2264 33.9966C36.9921 33.6401 36.8749 33.2349 36.8749 32.7808C36.8749 32.3608 36.953 31.9897 37.1093 31.6675C37.2655 31.3452 37.4974 31.0742 37.8051 30.8545C38.1127 30.6299 38.4935 30.4614 38.9476 30.3491C39.4066 30.2319 39.9315 30.1733 40.5223 30.1733H41.826ZM47.1801 28.6938V35H45.2465V27.0752H47.0775L47.1801 28.6938ZM49.5897 27.0239L49.5604 28.8257C49.453 28.8062 49.3309 28.7915 49.1942 28.7817C49.0624 28.772 48.9379 28.7671 48.8207 28.7671C48.5228 28.7671 48.2616 28.8086 48.037 28.8916C47.8124 28.9697 47.6244 29.0845 47.473 29.2358C47.3265 29.3872 47.2142 29.5728 47.1361 29.7925C47.058 30.0073 47.014 30.2515 47.0043 30.5249L46.5868 30.4736C46.5868 29.9707 46.6381 29.5044 46.7406 29.0747C46.8431 28.645 46.9921 28.269 47.1874 27.9468C47.3827 27.6245 47.6268 27.3755 47.9198 27.1997C48.2177 27.019 48.5594 26.9287 48.9452 26.9287C49.0526 26.9287 49.1674 26.9385 49.2894 26.958C49.4164 26.9727 49.5165 26.9946 49.5897 27.0239Z" fill="white"/>
</g>
</g>
<defs>
<filter id="filter0_i_141_84" x="0" y="0" width="270.086" height="37" filterUnits="userSpaceOnUse" color-interpolation-filters="sRGB">
<feFlood flood-opacity="0" result="BackgroundImageFix"/>
<feBlend mode="normal" in="SourceGraphic" in2="BackgroundImageFix" result="shape"/>
<feColorMatrix in="SourceAlpha" type="matrix" values="0 0 0 0 0 0 0 0 0 0 0 0 0 0 0 0 0 0 127 0" result="hardAlpha"/>
<feOffset/>
<feGaussianBlur stdDeviation="2"/>
<feComposite in2="hardAlpha" operator="arithmetic" k2="-1" k3="1"/>
<feColorMatrix type="matrix" values="0 0 0 0 0 0 0 0 0 0 0 0 0 0 0 0 0 0 0.25 0"/>
<feBlend mode="normal" in2="shape" result="effect1_innerShadow_141_84"/>
</filter>
<linearGradient id="paint0_linear_141_84" x1="147.999" y1="-29.8846" x2="229.108" y2="-20.9854" gradientUnits="userSpaceOnUse">
<stop stop-color="#ABE8D9" stop-opacity="0"/>
<stop offset="1" stop-color="#331154"/>
</linearGradient>
</defs>
</svg>
