<svg width="271" height="15" viewBox="0 0 271 15" fill="none" xmlns="http://www.w3.org/2000/svg">
<g filter="url(#filter0_i_141_93)">
<mask id="mask0_141_93" style="mask-type:alpha" maskUnits="userSpaceOnUse" x="0" y="0" width="271" height="15">
<rect width="270.086" height="15" rx="5" fill="#CCDAC6"/>
<rect width="270.086" height="15" rx="5" fill="url(#paint0_linear_141_93)" fill-opacity="0.84"/>
</mask>
<g mask="url(#mask0_141_93)">
<rect x="0.996582" y="1" width="32" height="270.086" rx="5" transform="rotate(-90 0.996582 1)" fill="#F7C209"/>
<rect width="55.8112" height="96.8162" rx="10" transform="matrix(0.942135 0.335234 0.479326 0.877637 -46 -60)" fill="#5E5B5B"/>
<path d="M0 5C0 2.23858 2.23858 0 5 0H265.086C267.847 0 270.086 2.23858 270.086 5V10C270.086 12.7614 267.847 15 265.086 15H5C2.23857 15 0 12.7614 0 10V5Z" fill="#CCDAC6" fill-opacity="0.14"/>
<path d="M0 5C0 2.23858 2.23858 0 5 0H265.086C267.847 0 270.086 2.23858 270.086 5V10C270.086 12.7614 267.847 15 265.086 15H5C2.23857 15 0 12.7614 0 10V5Z" fill="url(#paint1_linear_141_93)"/>
<path d="M6.98865 9.73779V11.3198H1.3783V9.73779H6.98865ZM1.92761 5.33594V16H-0.0865479V5.33594H1.92761ZM8.48279 5.33594V16H6.46863V5.33594H8.48279ZM12.4379 8.0752V16H10.4969V8.0752H12.4379ZM10.3651 6.00244C10.3651 5.71436 10.4628 5.4751 10.6581 5.28467C10.8583 5.09424 11.1268 4.99902 11.4637 4.99902C11.8007 4.99902 12.0668 5.09424 12.2621 5.28467C12.4623 5.4751 12.5624 5.71436 12.5624 6.00244C12.5624 6.28564 12.4623 6.52246 12.2621 6.71289C12.0668 6.90332 11.8007 6.99854 11.4637 6.99854C11.1268 6.99854 10.8583 6.90332 10.6581 6.71289C10.4628 6.52246 10.3651 6.28564 10.3651 6.00244ZM19.037 14.3154V4.75H20.9852V16H19.2274L19.037 14.3154ZM13.9467 12.1328V11.979C13.9467 11.3735 14.015 10.8242 14.1517 10.3311C14.2933 9.83301 14.4984 9.40576 14.767 9.04932C15.0355 8.69287 15.3602 8.41699 15.7411 8.22168C16.1268 8.02637 16.5638 7.92871 17.0521 7.92871C17.5258 7.92871 17.9384 8.02393 18.2899 8.21436C18.6464 8.40479 18.9491 8.67578 19.1981 9.02734C19.452 9.37891 19.6547 9.79639 19.806 10.2798C19.9574 10.7583 20.0673 11.2856 20.1356 11.8618V12.2793C20.0673 12.8408 19.9574 13.356 19.806 13.8247C19.6547 14.2935 19.452 14.7036 19.1981 15.0552C18.9491 15.4019 18.6464 15.6704 18.2899 15.8608C17.9335 16.0513 17.516 16.1465 17.0375 16.1465C16.5541 16.1465 16.1195 16.0464 15.7338 15.8462C15.3529 15.646 15.0282 15.3652 14.7596 15.0039C14.496 14.6426 14.2933 14.2178 14.1517 13.7295C14.015 13.2412 13.9467 12.709 13.9467 12.1328ZM15.8876 11.979V12.1328C15.8876 12.4746 15.9169 12.7944 15.9755 13.0923C16.0341 13.3901 16.1293 13.6538 16.2611 13.8833C16.3929 14.1079 16.5614 14.2837 16.7665 14.4106C16.9764 14.5376 17.2303 14.6011 17.5282 14.6011C17.9091 14.6011 18.2216 14.5181 18.4657 14.3521C18.7147 14.1812 18.9076 13.9492 19.0443 13.6562C19.181 13.3584 19.2689 13.0239 19.308 12.6528V11.5029C19.2885 11.21 19.2372 10.939 19.1542 10.6899C19.076 10.4409 18.9637 10.2261 18.8173 10.0454C18.6757 9.86475 18.4999 9.72314 18.2899 9.62061C18.08 9.51807 17.8309 9.4668 17.5428 9.4668C17.245 9.4668 16.9911 9.53271 16.7811 9.66455C16.5712 9.7915 16.4003 9.96973 16.2684 10.1992C16.1366 10.4287 16.0389 10.6948 15.9755 10.9976C15.9169 11.3003 15.8876 11.6274 15.8876 11.979ZM27.4891 14.3154V4.75H29.4374V16H27.6796L27.4891 14.3154ZM22.3988 12.1328V11.979C22.3988 11.3735 22.4672 10.8242 22.6039 10.3311C22.7455 9.83301 22.9506 9.40576 23.2191 9.04932C23.4877 8.69287 23.8124 8.41699 24.1932 8.22168C24.579 8.02637 25.016 7.92871 25.5043 7.92871C25.9779 7.92871 26.3905 8.02393 26.7421 8.21436C27.0985 8.40479 27.4012 8.67578 27.6503 9.02734C27.9042 9.37891 28.1068 9.79639 28.2582 10.2798C28.4095 10.7583 28.5194 11.2856 28.5878 11.8618V12.2793C28.5194 12.8408 28.4095 13.356 28.2582 13.8247C28.1068 14.2935 27.9042 14.7036 27.6503 15.0552C27.4012 15.4019 27.0985 15.6704 26.7421 15.8608C26.3856 16.0513 25.9681 16.1465 25.4896 16.1465C25.0062 16.1465 24.5717 16.0464 24.1859 15.8462C23.8051 15.646 23.4803 15.3652 23.2118 15.0039C22.9481 14.6426 22.7455 14.2178 22.6039 13.7295C22.4672 13.2412 22.3988 12.709 22.3988 12.1328ZM24.3397 11.979V12.1328C24.3397 12.4746 24.369 12.7944 24.4276 13.0923C24.4862 13.3901 24.5814 13.6538 24.7133 13.8833C24.8451 14.1079 25.0135 14.2837 25.2186 14.4106C25.4286 14.5376 25.6825 14.6011 25.9803 14.6011C26.3612 14.6011 26.6737 14.5181 26.9178 14.3521C27.1669 14.1812 27.3597 13.9492 27.4965 13.6562C27.6332 13.3584 27.7211 13.0239 27.7601 12.6528V11.5029C27.7406 11.21 27.6893 10.939 27.6063 10.6899C27.5282 10.4409 27.4159 10.2261 27.2694 10.0454C27.1278 9.86475 26.952 9.72314 26.7421 9.62061C26.5321 9.51807 26.2831 9.4668 25.995 9.4668C25.6971 9.4668 25.4432 9.53271 25.2333 9.66455C25.0233 9.7915 24.8524 9.96973 24.7206 10.1992C24.5887 10.4287 24.4911 10.6948 24.4276 10.9976C24.369 11.3003 24.3397 11.6274 24.3397 11.979ZM34.7474 16.1465C34.1469 16.1465 33.6073 16.0488 33.1288 15.8535C32.6503 15.6582 32.2426 15.3872 31.9056 15.0405C31.5736 14.689 31.3173 14.2812 31.1366 13.8174C30.9608 13.3486 30.8729 12.8457 30.8729 12.3086V12.0156C30.8729 11.4053 30.9608 10.8511 31.1366 10.353C31.3124 9.8501 31.5614 9.41797 31.8837 9.05664C32.2059 8.69531 32.5917 8.41699 33.0409 8.22168C33.4901 8.02637 33.9857 7.92871 34.5277 7.92871C35.0892 7.92871 35.5848 8.02393 36.0145 8.21436C36.4442 8.3999 36.8031 8.66357 37.0912 9.00537C37.3793 9.34717 37.5966 9.75732 37.743 10.2358C37.8895 10.7095 37.9628 11.2344 37.9628 11.8105V12.6235H31.7518V11.2905H36.0585V11.144C36.0487 10.8364 35.9901 10.5557 35.8827 10.3018C35.7753 10.043 35.6093 9.83789 35.3846 9.68652C35.16 9.53027 34.8695 9.45215 34.5131 9.45215C34.225 9.45215 33.9735 9.51562 33.7587 9.64258C33.5487 9.76465 33.3729 9.94043 33.2313 10.1699C33.0946 10.3945 32.9921 10.6631 32.9237 10.9756C32.8553 11.2881 32.8212 11.6348 32.8212 12.0156V12.3086C32.8212 12.6406 32.8651 12.9482 32.953 13.2314C33.0458 13.5146 33.1801 13.7612 33.3558 13.9712C33.5365 14.1763 33.7513 14.3374 34.0004 14.4546C34.2543 14.5669 34.5424 14.623 34.8646 14.623C35.2699 14.623 35.6361 14.5449 35.9633 14.3887C36.2953 14.2275 36.5834 13.9907 36.8275 13.6782L37.8016 14.689C37.6356 14.9331 37.411 15.1675 37.1278 15.3921C36.8495 15.6167 36.5126 15.7998 36.1171 15.9414C35.7216 16.0781 35.265 16.1465 34.7474 16.1465ZM41.1561 9.76709V16H39.2225V8.0752H41.0389L41.1561 9.76709ZM40.8485 11.752H40.2772C40.2821 11.1758 40.3602 10.6533 40.5116 10.1846C40.663 9.71582 40.8754 9.31299 41.1488 8.97607C41.4271 8.63916 41.7567 8.38037 42.1376 8.19971C42.5184 8.01904 42.9432 7.92871 43.412 7.92871C43.7928 7.92871 44.1371 7.98242 44.4447 8.08984C44.7523 8.19727 45.016 8.36816 45.2357 8.60254C45.4603 8.83691 45.6312 9.14453 45.7484 9.52539C45.8705 9.90137 45.9315 10.3652 45.9315 10.917V16H43.9833V10.9023C43.9833 10.541 43.9296 10.2554 43.8221 10.0454C43.7196 9.83545 43.5682 9.68652 43.368 9.59863C43.1727 9.51074 42.931 9.4668 42.6429 9.4668C42.3451 9.4668 42.0839 9.52783 41.8593 9.6499C41.6395 9.76709 41.454 9.93066 41.3026 10.1406C41.1561 10.3506 41.0438 10.5923 40.9657 10.8657C40.8876 11.1392 40.8485 11.4346 40.8485 11.752Z" fill="white"/>
</g>
</g>
<defs>
<filter id="filter0_i_141_93" x="0" y="-2" width="270.086" height="17" filterUnits="userSpaceOnUse" color-interpolation-filters="sRGB">
<feFlood flood-opacity="0" result="BackgroundImageFix"/>
<feBlend mode="normal" in="SourceGraphic" in2="BackgroundImageFix" result="shape"/>
<feColorMatrix in="SourceAlpha" type="matrix" values="0 0 0 0 0 0 0 0 0 0 0 0 0 0 0 0 0 0 127 0" result="hardAlpha"/>
<feOffset dy="-2"/>
<feGaussianBlur stdDeviation="2"/>
<feComposite in2="hardAlpha" operator="arithmetic" k2="-1" k3="1"/>
<feColorMatrix type="matrix" values="0 0 0 0 0 0 0 0 0 0 0 0 0 0 0 0 0 0 0.25 0"/>
<feBlend mode="normal" in2="shape" result="effect1_innerShadow_141_93"/>
</filter>
<linearGradient id="paint0_linear_141_93" x1="120.094" y1="-11" x2="240.731" y2="18.3124" gradientUnits="userSpaceOnUse">
<stop stop-color="#C90B0B" stop-opacity="0"/>
<stop offset="1" stop-color="#C90B0B"/>
</linearGradient>
<linearGradient id="paint1_linear_141_93" x1="120.094" y1="-11" x2="240.731" y2="18.3124" gradientUnits="userSpaceOnUse">
<stop stop-color="#EEFF86" stop-opacity="0"/>
<stop offset="1" stop-color="#C90B0B"/>
</linearGradient>
</defs>
</svg>
