<svg width="890" height="363" viewBox="0 0 890 363" fill="none" xmlns="http://www.w3.org/2000/svg">
<path d="M0 23.7064C0 9.9948 11.9972 -0.659288 25.6292 0.815998C353.355 36.2833 545.485 35.6259 864.362 0.839159C878 -0.648677 890 10.0089 890 23.7283V340C890 352.703 879.703 363 867 363H23C10.2974 363 0 352.703 0 340V23.7064Z" fill="#F4E6E6"/>
<path d="M0 23.7064C0 9.9948 11.9972 -0.659288 25.6292 0.815998C353.355 36.2833 545.485 35.6259 864.362 0.839159C878 -0.648677 890 10.0089 890 23.7283V340C890 352.703 879.703 363 867 363H23C10.2974 363 0 352.703 0 340V23.7064Z" fill="url(#paint0_radial_99_279)" fill-opacity="0.31"/>
<defs>
<radialGradient id="paint0_radial_99_279" cx="0" cy="0" r="1" gradientUnits="userSpaceOnUse" gradientTransform="translate(3205.09 238.999) rotate(93.7017) scale(175.608 444.32)">
<stop stop-color="white" stop-opacity="0"/>
<stop offset="1" stop-color="white"/>
</radialGradient>
</defs>
</svg>
