<svg width="314" height="357" viewBox="0 0 314 357" fill="none" xmlns="http://www.w3.org/2000/svg">
<path d="M0 23.3879C0 7.84081 15.135 -3.19361 30.1003 1.0198C126.229 28.0846 190.24 27.6693 283.857 1.10462C298.834 -3.14524 314 7.89226 314 23.4606V334C314 346.703 303.703 357 291 357H23C10.2974 357 0 346.703 0 334V23.3879Z" fill="#F4E6E6"/>
<path d="M0 23.3879C0 7.84081 15.135 -3.19361 30.1003 1.0198C126.229 28.0846 190.24 27.6693 283.857 1.10462C298.834 -3.14524 314 7.89226 314 23.4606V334C314 346.703 303.703 357 291 357H23C10.2974 357 0 346.703 0 334V23.3879Z" fill="url(#paint0_radial_7_22)" fill-opacity="0.31"/>
<defs>
<radialGradient id="paint0_radial_7_22" cx="0" cy="0" r="1" gradientUnits="userSpaceOnUse" gradientTransform="translate(157 188.499) rotate(91.3076) scale(175.287 157.047)">
<stop stop-color="white" stop-opacity="0"/>
<stop offset="1" stop-color="white"/>
</radialGradient>
</defs>
</svg>
