<svg width="271" height="13" viewBox="0 0 271 13" fill="none" xmlns="http://www.w3.org/2000/svg">
<g filter="url(#filter0_i_14_43)">
<mask id="mask0_14_43" style="mask-type:luminance" maskUnits="userSpaceOnUse" x="0" y="0" width="271" height="13">
<path d="M0 6C0 2.68629 2.68629 0 6 0H265C268.314 0 271 2.68629 271 6V7C271 10.3137 268.314 13 265 13H6C2.68629 13 0 10.3137 0 7V6Z" fill="white"/>
</mask>
<g mask="url(#mask0_14_43)">
<path d="M6 6C6 2.68629 8.68629 0 12 0H271C274.314 0 277 2.68629 277 6V7C277 10.3137 274.314 13 271 13H12C8.68629 13 6 10.3137 6 7V6Z" fill="#CCDAC6" fill-opacity="0.14"/>
<path d="M6 6C6 2.68629 8.68629 0 12 0H271C274.314 0 277 2.68629 277 6V7C277 10.3137 274.314 13 271 13H12C8.68629 13 6 10.3137 6 7V6Z" fill="url(#paint0_linear_14_43)" fill-opacity="0.2"/>
<rect x="8.50861" y="-16" width="32.4834" height="39.066" transform="rotate(31.6664 8.50861 -16)" fill="#403A81"/>
<rect x="8.50861" y="-16" width="32.4834" height="39.066" transform="rotate(31.6664 8.50861 -16)" fill="#403A81"/>
</g>
</g>
<defs>
<filter id="filter0_i_14_43" x="0" y="0" width="271" height="13" filterUnits="userSpaceOnUse" color-interpolation-filters="sRGB">
<feFlood flood-opacity="0" result="BackgroundImageFix"/>
<feBlend mode="normal" in="SourceGraphic" in2="BackgroundImageFix" result="shape"/>
<feColorMatrix in="SourceAlpha" type="matrix" values="0 0 0 0 0 0 0 0 0 0 0 0 0 0 0 0 0 0 127 0" result="hardAlpha"/>
<feOffset/>
<feGaussianBlur stdDeviation="2"/>
<feComposite in2="hardAlpha" operator="arithmetic" k2="-1" k3="1"/>
<feColorMatrix type="matrix" values="0 0 0 0 0 0 0 0 0 0 0 0 0 0 0 0 0 0 0.25 0"/>
<feBlend mode="normal" in2="shape" result="effect1_innerShadow_14_43"/>
</filter>
<linearGradient id="paint0_linear_14_43" x1="148.5" y1="-10.5" x2="223.5" y2="13" gradientUnits="userSpaceOnUse">
<stop stop-color="#76FFDE" stop-opacity="0"/>
<stop offset="1" stop-color="#76FFDE"/>
</linearGradient>
</defs>
</svg>
