<svg width="890" height="433" viewBox="0 0 890 433" fill="none" xmlns="http://www.w3.org/2000/svg">
<path d="M0 23.2656C0 9.35706 12.3216 -1.35551 26.1155 0.42662C353.377 42.7077 545.446 41.9251 863.872 0.45522C877.673 -1.34218 890 9.37444 890 23.2923V410C890 422.703 879.703 433 867 433H23C10.2974 433 0 422.703 0 410V23.2656Z" fill="#F4E6E6"/>
<path d="M0 23.2656C0 9.35706 12.3216 -1.35551 26.1155 0.42662C353.377 42.7077 545.446 41.9251 863.872 0.45522C877.673 -1.34218 890 9.37444 890 23.2923V410C890 422.703 879.703 433 867 433H23C10.2974 433 0 422.703 0 410V23.2656Z" fill="url(#paint0_radial_99_279)" fill-opacity="0.31"/>
<defs>
<radialGradient id="paint0_radial_99_279" cx="0" cy="0" r="1" gradientUnits="userSpaceOnUse" gradientTransform="translate(3205.09 284.878) rotate(93.1002) scale(209.636 444.598)">
<stop stop-color="white" stop-opacity="0"/>
<stop offset="1" stop-color="white"/>
</radialGradient>
</defs>
</svg>
